<?xml version="1.0" encoding="UTF-8" standalone="no"?>
<!DOCTYPE svg PUBLIC "-//W3C//DTD SVG 1.1//EN" "http://www.w3.org/Graphics/SVG/1.1/DTD/svg11.dtd">
<svg version="1.1" xmlns="http://www.w3.org/2000/svg" xmlns:xlink="http://www.w3.org/1999/xlink" preserveAspectRatio="xMidYMid meet" viewBox="0 0 640 640" width="640" height="640"><defs><path d="M529.94 87.72C524.31 99.29 522.19 112.25 523.82 125.01C524.41 129.64 525.89 141.2 528.25 159.7C523.33 209.97 520.25 241.39 519.02 253.96C518.38 260.55 522.51 266.66 528.86 268.52C535.63 270.5 542.26 272.44 548.34 274.23C557.77 276.99 567.73 277.41 577.36 275.45C582.49 274.41 583.21 274.26 588.34 273.22C597.24 271.41 604.21 264.46 606.04 255.56C609.14 240.48 615.63 208.93 618.79 193.61C620.61 184.74 620.38 175.58 618.11 166.82C615.09 155.18 609.05 131.88 605.92 119.81C604 112.38 601.02 105.26 597.09 98.66C594.18 93.77 594.97 95.11 592.96 91.73C586.08 80.2 581.83 67.29 580.51 53.92C580.17 50.43 580.18 50.56 579.6 44.64C579.22 40.86 575.02 38.78 571.78 40.77C566.35 44.12 564.44 45.3 560.86 47.51C550.25 54.04 541.73 63.46 536.29 74.66C533.29 80.82 532.88 81.68 529.94 87.72Z" id="a1OBFRGBM9"></path><path d="M130.06 89.39C135.69 100.96 137.81 113.92 136.18 126.68C135.59 131.31 134.11 142.87 131.75 161.37C136.67 211.64 139.75 243.06 140.98 255.63C141.62 262.22 137.49 268.33 131.14 270.19C124.37 272.17 117.74 274.11 111.66 275.9C102.23 278.66 92.27 279.08 82.64 277.12C77.51 276.08 76.79 275.93 71.66 274.89C62.76 273.08 55.79 266.13 53.96 257.23C50.86 242.14 44.37 210.6 41.21 195.28C39.39 186.41 39.62 177.25 41.89 168.49C44.91 156.85 50.95 133.55 54.08 121.48C56 114.05 58.98 106.93 62.91 100.33C65.82 95.44 65.03 96.78 67.04 93.4C73.92 81.87 78.17 68.96 79.49 55.59C79.83 52.1 79.82 52.23 80.4 46.31C80.78 42.53 84.98 40.45 88.22 42.44C93.65 45.79 95.56 46.97 99.14 49.18C109.75 55.71 118.27 65.13 123.71 76.33C126.71 82.49 127.12 83.35 130.06 89.39Z" id="e1Inlp0Bjq"></path><path d="M531.71 152.36C527.98 157.99 526.55 164.83 527.71 171.48C528.42 175.54 528.58 176.49 529.25 180.33C530.57 187.93 530.72 195.68 529.71 203.32C528.42 212.95 526.46 227.67 525.26 236.64C524.15 245.03 529.66 252.87 537.94 254.65C541.9 255.5 545.06 256.18 550.51 257.35C555.3 258.38 560.23 258.54 565.08 257.81C569.82 257.1 569.08 257.21 571.91 256.79C582.17 255.26 590.57 247.85 593.37 237.86C595.31 230.95 595.89 228.88 597.66 222.54C601.16 210.05 600.72 196.78 596.41 184.55C594.88 180.22 593.61 176.6 591.25 169.92C589.61 165.28 587.19 160.95 584.09 157.14C581.87 154.4 581.95 154.5 580.25 152.4C575.52 146.57 572.57 139.5 571.76 132.04C571.44 129.12 571.24 127.28 570.8 123.23C570.51 120.58 567.54 119.14 565.28 120.56C560.99 123.25 558.26 124.96 555.28 126.84C547.74 131.57 541.3 137.87 536.38 145.29C534.29 148.46 534.14 148.69 531.71 152.36Z" id="b2TOnHDwSY"></path><path d="M133.41 150.07C137.14 155.7 138.57 162.54 137.41 169.19C136.71 173.26 136.54 174.2 135.87 178.04C134.55 185.64 134.4 193.39 135.42 201.03C136.7 210.66 138.66 225.38 139.86 234.35C140.97 242.74 135.46 250.58 127.18 252.36C123.22 253.21 120.06 253.89 114.62 255.06C109.83 256.09 104.89 256.25 100.04 255.52C95.3 254.82 96.04 254.93 93.21 254.5C82.95 252.97 74.55 245.56 71.75 235.57C69.82 228.67 69.24 226.59 67.46 220.25C63.96 207.76 64.4 194.49 68.71 182.26C70.24 177.93 71.52 174.31 73.87 167.63C75.51 162.99 77.93 158.67 81.03 154.85C83.25 152.11 83.17 152.21 84.88 150.11C89.6 144.28 92.55 137.21 93.36 129.75C93.68 126.84 93.88 124.99 94.32 120.94C94.61 118.29 97.58 116.85 99.84 118.27C104.13 120.96 106.86 122.68 109.84 124.55C117.38 129.28 123.82 135.58 128.74 143C130.83 146.17 130.99 146.4 133.41 150.07Z" id="aNn5wWzTI"></path><path d="M123.05 128.05C117.08 137.76 113.37 148.7 112.22 160.04C109.78 184.03 104.69 234 102.36 256.79C100.82 271.94 94.95 286.33 85.45 298.23C81.97 302.58 82.73 301.63 78.41 307.04C71.73 315.41 68.21 325.87 68.47 336.57C68.78 349.26 69.13 364.1 69.4 375.13C69.8 391.51 73.8 407.6 81.13 422.25C84.9 429.8 88.02 436.03 92.52 445.04C97.41 454.82 104.92 463.05 114.22 468.8C147.79 489.58 230.22 540.59 262.78 560.74C275.24 568.45 290.04 571.45 304.51 569.21C311.08 568.19 311.8 568.07 319.23 566.92C331.25 565.05 343.47 564.82 355.56 566.22C362.76 567.05 361.56 566.91 367.61 567.61C383.05 569.4 398.61 565.48 411.36 556.6C439.09 537.28 505.01 491.35 533.37 471.58C544.37 463.92 553.92 454.37 561.59 443.38C567.27 435.23 572.76 427.36 578.46 419.2C585.97 408.43 590 395.61 590 382.47C590 369.98 590 356.16 590 344.54C590 328.77 584 313.6 573.22 302.09C569.04 297.63 572.41 301.23 568.02 296.53C557.86 285.69 551.82 271.64 550.94 256.8C549.59 234 546.92 188.82 545.58 166.09C544.68 150.85 539.57 136.16 530.84 123.65C528.1 119.74 530.47 123.12 527.03 118.21C527.03 118.21 506.16 90.83 506.16 90.83C501 84.62 509.26 94.56 507.28 92.18C489.9 71.26 465.6 57.25 438.78 52.71C417.23 49.05 446.93 54.09 438.57 52.67C367.39 40.59 294.68 40.58 223.49 52.63C215.06 54.05 244.95 48.99 223.43 52.64C196.07 57.27 170.83 70.31 151.23 89.96C148.75 92.45 157.75 83.43 151.84 89.35C143.18 98.03 135.56 107.69 129.14 118.14C126.11 123.07 126.2 122.92 123.05 128.05Z" id="db0om0YMS"></path><path d="M286.41 272.14L265.55 223.04C264.81 221.78 264.34 220.99 264.16 220.67C258.72 211.45 249.77 204.84 239.37 202.33C233.45 200.91 229.1 201 226.32 202.6C223.11 204.45 220.9 208.58 219.69 214.99C218.03 223.82 214.26 232.12 208.72 239.19C206.9 241.51 209.65 238 207.78 240.39C202.36 247.3 195.79 253.21 188.36 257.88C175.12 266.18 165.91 273.82 160.74 280.77C156.32 286.71 156.79 293.83 162.15 302.12C166.29 308.52 173.55 312.21 181.17 311.77C184.1 311.6 179.73 311.85 182.45 311.69C191.34 311.18 200.26 311.67 209.04 313.17C217.79 314.66 235.69 317.71 245.65 319.41C250.37 320.21 255.2 320.2 259.91 319.36C263.44 318.73 263.47 318.72 266.14 318.25C273.31 316.97 279.46 312.41 282.77 305.93C284.22 303.08 282.68 306.11 283.97 303.58C287.9 295.88 289.17 287.11 287.6 278.61C287.44 277.75 287.04 275.59 286.41 272.14Z" id="a484p9mDbo"></path><path d="M324.02 617.79L324.02 22.21" id="c1bsFKmgB"></path><path d="M223.21 249.57C225.41 248.04 226.59 247.27 226.77 247.24C235.42 246.1 244.1 248.99 250.34 255.07C252.17 256.85 256.72 261.3 264.02 268.42C269.11 276.56 270.96 282.68 269.54 286.78C268.12 290.87 263.44 292.95 255.51 293L210.82 286.36C199.06 286.54 191.71 286.65 188.77 286.7C186 286.74 184.61 283.37 186.6 281.44C202.47 266.15 214.67 255.52 223.21 249.57Z" id="ca7PKehp8"></path><path d="M419.9 559.7C431.6 554.04 427.36 538.39 407.18 512.77C395.34 497.74 378.49 487.47 359.71 483.83C353.56 482.64 359.12 483.72 351.69 482.28C336.69 479.37 321.28 479.34 306.27 482.2C298.62 483.65 308.45 481.78 303.32 482.76C281.36 486.93 263.12 502.15 255.08 523C252.47 529.79 256.03 520.53 253.04 528.3C247.09 543.72 255.56 560.95 271.41 565.65C282.58 568.97 271.06 565.55 278.33 567.71C310.47 577.25 344.47 578.75 377.33 572.08C396.86 568.11 411.05 563.98 419.9 559.7Z" id="g1xLbpwls"></path><path d="M220.07 628.46C225.92 630.11 232.14 627.6 235.21 622.35C240.17 613.88 250.53 596.18 255.67 587.41C258.54 582.5 260.66 577.18 261.94 571.64C265.28 557.31 270.99 532.74 273.74 520.92C276.67 508.32 287.06 498.81 299.88 497.02C305.7 496.2 304.85 496.32 311.41 495.4C323.06 493.77 334.88 493.9 346.48 495.8C353.18 496.89 355.79 497.32 362.5 498.42C373.14 500.15 381.75 508.01 384.47 518.44C387.58 530.37 391.22 544.36 394.02 555.13C397.99 570.37 403.99 585 411.87 598.63C415.5 604.9 419.2 611.31 424 619.62C427.55 625.76 434.75 628.81 441.63 627.09C447.31 625.67 455.73 623.57 462.16 621.96C467.1 620.72 471.18 617.25 473.18 612.58C478.55 600.06 485.66 583.45 489.58 574.31C496.34 558.54 497.75 540.99 493.58 524.34C491.77 517.09 487.25 498.98 480 470C478.35 444.36 477.32 428.34 476.91 421.93C475.29 396.82 460.51 374.45 438.04 363.12C432.98 360.57 442.36 365.3 434.38 361.27C420.02 354.03 404.7 348.87 388.89 345.94C382.46 344.75 387.88 345.76 381.67 344.61C365.1 341.54 348.28 340 331.43 340C325.3 340 333.13 340 327.22 340C309.64 340 292.1 341.71 274.86 345.11C269.89 346.08 272.63 345.54 265.59 346.93C255.24 348.97 245.17 352.27 235.62 356.76C225.15 361.69 230.2 359.31 225.25 361.64C199.58 373.72 183.11 399.46 182.89 427.83C182.77 443.14 181.81 457.62 180 471.27C177.62 489.28 173.89 506.46 168.83 522.79C163.13 541.16 164.23 560.96 171.92 578.58C175.54 586.87 182.14 601.99 187.68 614.67C189.15 618.05 192.05 620.58 195.59 621.57C202.47 623.51 214.05 626.77 220.07 628.46Z" id="b2iaOVY2oF"></path><path d="M276.9 385.57C279.65 391.93 285.33 396.55 292.11 397.93C296 398.73 300.02 399.55 304.7 400.5C307.08 400.99 307.58 404.15 305.47 405.35C302.34 407.13 297.49 409.88 293.97 411.88C291.51 413.28 290.29 416.15 291 418.89C291.76 421.87 292.49 424.67 293.16 427.28C294.2 431.32 297.28 434.53 301.28 435.73C307.52 437.61 320.22 441.43 326.57 443.34C330.4 444.49 334.5 444.34 338.24 442.9C343.49 440.87 352.54 437.39 357.55 435.46C362 433.74 365.55 430.27 367.35 425.85C368.3 423.53 368.73 422.48 369.78 419.91C371.09 416.69 369.77 412.99 366.71 411.32C363.25 409.44 357.35 406.23 353.66 404.22C352.21 403.43 352.53 401.26 354.15 400.93C359.25 399.89 364.75 398.77 368.58 397.98C375.5 396.57 381.26 391.8 383.93 385.26C384.59 383.65 382.49 388.79 383.2 387.05C385.73 380.86 385.16 373.83 381.67 368.13C381.26 367.48 383.83 371.67 382.99 370.29C380.85 366.8 377.45 364.28 373.5 363.24C364.78 360.96 364.04 360.76 360.13 359.74C340.34 354.56 319.54 354.62 299.78 359.91C296.08 360.9 295.96 360.93 287.46 363.2C283.51 364.26 280.15 366.86 278.13 370.42C277.24 371.97 277.82 370.95 276.96 372.47C274.92 376.07 274.68 380.41 276.32 384.21C277.31 386.51 276.27 384.1 276.9 385.57Z" id="a1zXhdaw34"></path><path d="M376.59 272.14L397.45 223.04C398.19 221.78 398.66 220.99 398.84 220.67C404.28 211.45 413.23 204.84 423.63 202.33C429.55 200.91 433.9 201 436.68 202.6C439.89 204.45 442.1 208.58 443.31 214.99C444.97 223.82 448.74 232.12 454.28 239.19C456.1 241.51 453.35 238 455.22 240.39C460.64 247.3 467.21 253.21 474.64 257.88C487.88 266.18 497.09 273.82 502.26 280.77C506.68 286.71 506.21 293.83 500.85 302.12C496.71 308.52 489.45 312.21 481.83 311.77C478.9 311.6 483.27 311.85 480.55 311.69C471.66 311.18 462.74 311.67 453.96 313.17C445.21 314.66 427.31 317.71 417.35 319.41C412.63 320.21 407.8 320.2 403.09 319.36C399.56 318.73 399.53 318.72 396.86 318.25C389.69 316.97 383.54 312.41 380.23 305.93C378.78 303.08 380.32 306.11 379.03 303.58C375.1 295.88 373.83 287.11 375.4 278.61C375.56 277.75 375.96 275.59 376.59 272.14Z" id="b1jYM4l58K"></path><path d="M436.79 249.57C434.59 248.04 433.41 247.27 433.23 247.24C424.58 246.1 415.9 248.99 409.66 255.07C407.83 256.85 403.28 261.3 395.98 268.42C390.89 276.56 389.04 282.68 390.46 286.78C391.88 290.87 396.56 292.95 404.49 293L449.18 286.36C460.94 286.54 468.29 286.65 471.23 286.7C474 286.74 475.39 283.37 473.4 281.44C457.53 266.15 445.33 255.52 436.79 249.57Z" id="bbWBEMuX9"></path><path d="M250 272.18C250 280.53 242.57 287.31 233.41 287.31C224.25 287.31 216.82 280.53 216.82 272.18C216.82 263.84 224.25 257.06 233.41 257.06C242.57 257.06 250 263.84 250 272.18Z" id="e2mbB0RSa9"></path><path d="M229.4 261.6C229.4 265.76 225.88 269.15 221.55 269.15C217.22 269.15 213.7 265.76 213.7 261.6C213.7 257.43 217.22 254.04 221.55 254.04C225.88 254.04 229.4 257.43 229.4 261.6Z" id="a4ctOsXyDI"></path><path d="M561.08 360.85C561.32 367.66 560.64 374.47 559.06 381.1C558.24 384.51 557.83 386.21 556.93 389.99C555.66 395.3 552.73 400.06 548.56 403.59C546.36 405.45 546.29 405.52 544.11 407.36C539.76 411.04 535.99 415.36 532.92 420.17C530.6 423.8 529.72 425.18 527.76 428.25C523.55 434.86 521.07 442.43 520.56 450.25C520.29 454.54 519.59 465.26 518.49 482.42L540.29 466.2C540.46 463.25 540.58 461.41 540.62 460.68C541.38 447.99 547.38 436.18 557.18 428.09C558.87 426.69 549.97 434.04 552.01 432.36C560.86 425.04 567.23 415.15 570.23 404.06C571.43 399.6 572.39 396.07 574.08 389.8C575.53 384.47 576.26 378.97 576.26 373.44C576.26 369.6 576.26 375.11 576.26 373.44C576.26 360.69 574.41 348.01 570.76 335.79C569.31 330.91 567.68 325.47 565.54 318.28C565.09 316.77 562.9 316.97 562.73 318.54C562.26 322.94 561.69 328.27 561.24 332.49C561.24 332.49 560.66 348.69 560.66 348.69C560.82 353.17 560.94 356.79 561.08 360.85Z" id="bdAlFSls8"></path><path d="M177.05 131.93C190.49 129.78 203.51 125.51 215.61 119.27C219.3 117.37 221.89 116.03 228.03 112.87C231.52 111.07 235.8 112 238.23 115.09C241.33 119.03 243.41 121.67 245.75 124.65C250.86 131.15 258.35 135.33 266.55 136.29C269.31 136.61 269.18 136.59 273.04 137.04C276.86 137.48 280.17 134.4 279.99 130.56C279.85 127.32 279.87 127.79 279.75 125.27C279.43 118.07 277.63 111.02 274.47 104.55C272.24 99.98 271.01 97.46 268.95 93.24C265.33 85.83 258.94 80.15 251.16 77.43C248.91 76.64 257.63 79.69 256.21 79.2C245.67 75.51 234.17 75.63 223.71 79.54C219.29 81.19 223.03 79.8 218.81 81.37C207.39 85.64 196.64 91.52 186.89 98.82C184.51 100.6 188.76 97.42 185.55 99.82C178.59 105.04 172.73 111.58 168.31 119.08C166.45 122.22 166.95 121.38 164.94 124.8C162.59 128.78 165.94 133.7 170.51 132.97C175.88 132.11 173.45 132.5 177.05 131.93Z" id="itQ7so6z7"></path><path d="M467.12 132.4C453.68 130.25 440.66 125.98 428.56 119.74C424.87 117.84 422.28 116.51 416.14 113.34C412.65 111.54 408.37 112.47 405.94 115.56C402.84 119.51 400.76 122.15 398.42 125.12C393.31 131.62 385.82 135.81 377.61 136.76C374.86 137.08 374.99 137.07 371.13 137.51C367.31 137.96 364 134.87 364.18 131.03C364.32 127.79 364.3 128.27 364.41 125.74C364.74 118.55 366.54 111.5 369.7 105.03C371.93 100.46 373.16 97.94 375.22 93.72C378.84 86.31 385.23 80.63 393.01 77.91C395.26 77.12 386.54 80.17 387.96 79.67C398.5 75.98 410 76.11 420.46 80.02C424.88 81.67 421.14 80.27 425.36 81.85C436.78 86.12 447.52 91.99 457.28 99.3C459.66 101.08 455.41 97.89 458.61 100.3C465.58 105.51 471.44 112.06 475.86 119.55C477.71 122.7 477.22 121.86 479.23 125.27C481.58 129.26 478.23 134.17 473.66 133.45C468.29 132.59 470.72 132.98 467.12 132.4Z" id="c4wvYncf"></path><path d="M96.12 361.85C95.89 368.66 96.57 375.47 98.15 382.1C98.97 385.51 99.37 387.21 100.27 390.99C101.54 396.3 104.48 401.06 108.64 404.59C110.85 406.45 110.92 406.52 113.09 408.36C117.45 412.04 121.22 416.36 124.29 421.17C126.6 424.8 127.49 426.18 129.44 429.25C133.66 435.86 136.17 443.42 136.73 451.25C137.04 455.58 137.81 466.41 139.05 483.75L115.8 468.87C115.74 465.05 115.71 462.67 115.69 461.71C115.5 449.07 109.78 437.14 100.03 429.09C98.34 427.69 107.24 435.04 105.2 433.36C96.35 426.04 89.98 416.15 86.98 405.06C85.77 400.6 84.82 397.07 83.12 390.8C81.68 385.47 80.95 379.97 80.95 374.44C80.95 370.6 80.95 376.11 80.95 374.44C80.95 361.69 82.8 349.01 86.45 336.79C87.9 331.91 89.52 326.47 91.67 319.28C92.12 317.77 94.31 317.97 94.48 319.54C94.95 323.94 95.52 329.27 95.97 333.49C95.97 333.49 96.55 349.69 96.55 349.69C96.39 354.17 96.26 357.79 96.12 361.85Z" id="f6g9GiNMgA"></path><path d="M443.18 272.79C443.18 281.14 435.75 287.92 426.59 287.92C417.43 287.92 410 281.14 410 272.79C410 264.45 417.43 257.67 426.59 257.67C435.75 257.67 443.18 264.45 443.18 272.79Z" id="d2u2rAGsfy"></path><path d="M447.85 262.45C447.85 266.62 444.33 270 440 270C435.67 270 432.15 266.62 432.15 262.45C432.15 258.28 435.67 254.9 440 254.9C444.33 254.9 447.85 258.28 447.85 262.45Z" id="aut8lVrVv"></path></defs><g><g><g><use xlink:href="#a1OBFRGBM9" opacity="1" fill="#36280f" fill-opacity="1"></use></g><g><use xlink:href="#e1Inlp0Bjq" opacity="1" fill="#36280f" fill-opacity="1"></use></g><g><use xlink:href="#b2TOnHDwSY" opacity="1" fill="#1e1e1e" fill-opacity="1"></use></g><g><use xlink:href="#aNn5wWzTI" opacity="1" fill="#1e1e1e" fill-opacity="1"></use></g><g><use xlink:href="#db0om0YMS" opacity="1" fill="#c8a170" fill-opacity="1"></use></g><g><use xlink:href="#a484p9mDbo" opacity="1" fill="#1e1e1e" fill-opacity="1"></use></g><g></g><g><use xlink:href="#ca7PKehp8" opacity="1" fill="#895600" fill-opacity="1"></use></g><g><use xlink:href="#g1xLbpwls" opacity="1" fill="#1e1e1e" fill-opacity="1"></use></g><g><use xlink:href="#b2iaOVY2oF" opacity="1" fill="#3e3627" fill-opacity="1"></use></g><g><use xlink:href="#a1zXhdaw34" opacity="1" fill="#000000" fill-opacity="1"></use></g><g><use xlink:href="#b1jYM4l58K" opacity="1" fill="#1e1e1e" fill-opacity="1"></use></g><g><use xlink:href="#bbWBEMuX9" opacity="1" fill="#895600" fill-opacity="1"></use></g><g><use xlink:href="#e2mbB0RSa9" opacity="1" fill="#000000" fill-opacity="1"></use></g><g><use xlink:href="#a4ctOsXyDI" opacity="1" fill="#ffffff" fill-opacity="1"></use></g><g><use xlink:href="#bdAlFSls8" opacity="1" fill="#8d6430" fill-opacity="1"></use></g><g><use xlink:href="#itQ7so6z7" opacity="1" fill="#8d6430" fill-opacity="1"></use></g><g><use xlink:href="#c4wvYncf" opacity="1" fill="#8d6430" fill-opacity="1"></use></g><g><use xlink:href="#f6g9GiNMgA" opacity="1" fill="#8d6430" fill-opacity="1"></use></g><g><use xlink:href="#d2u2rAGsfy" opacity="1" fill="#000000" fill-opacity="1"></use></g><g><use xlink:href="#aut8lVrVv" opacity="1" fill="#ffffff" fill-opacity="1"></use></g></g></g></svg>